<svg width="800" height="400" viewBox="0 0 800 400" xmlns="http://www.w3.org/2000/svg" xmlns:xlink="http://www.w3.org/1999/xlink">
  <defs>
    <pattern id="hex_0_0.05" width="34.6410161513775" height="60" patternTransform="rotate(0 0 0)" patternUnits="userSpaceOnUse">
      <rect style="fill:#ffffff; fill-opacity:1; stroke:none;" width="100%" height="100%" />
      <g style="stroke:#000000; stroke-width:1.6; stroke-opacity:1;">
        <line x1="17.3205080756888" y1="10" x2="0" y2="20" />
        <line x1="17.3205080756888" y1="10" x2="34.6410161513775" y2="20" />
        <line x1="17.3205080756888" y1="50" x2="0" y2="40" />
        <line x1="17.3205080756888" y1="50" x2="34.6410161513775" y2="40" />
        <line x1="17.3205080756888" y1="0" x2="17.3205080756888" y2="10" />
        <line x1="17.3205080756888" y1="50" x2="17.3205080756888" y2="60" />
        <line x1="0" y1="20" x2="0" y2="40" />
        <line x1="34.6410161513775" y1="20" x2="34.6410161513775" y2="40" />
      </g>
    </pattern>
    <pattern id="hex_22.5_0.05" width="34.6410161513775" height="60" patternTransform="rotate(22.5 0 0)" patternUnits="userSpaceOnUse">
      <rect style="fill:#ffffff; fill-opacity:1; stroke:none;" width="100%" height="100%" />
      <g style="stroke:#000000; stroke-width:1.6; stroke-opacity:1;">
        <line x1="17.3205080756888" y1="10" x2="0" y2="20" />
        <line x1="17.3205080756888" y1="10" x2="34.6410161513775" y2="20" />
        <line x1="17.3205080756888" y1="50" x2="0" y2="40" />
        <line x1="17.3205080756888" y1="50" x2="34.6410161513775" y2="40" />
        <line x1="17.3205080756888" y1="0" x2="17.3205080756888" y2="10" />
        <line x1="17.3205080756888" y1="50" x2="17.3205080756888" y2="60" />
        <line x1="0" y1="20" x2="0" y2="40" />
        <line x1="34.6410161513775" y1="20" x2="34.6410161513775" y2="40" />
      </g>
    </pattern>
    <pattern id="hex_45_0.05" width="34.6410161513775" height="60" patternTransform="rotate(45 0 0)" patternUnits="userSpaceOnUse">
      <rect style="fill:#ffffff; fill-opacity:1; stroke:none;" width="100%" height="100%" />
      <g style="stroke:#000000; stroke-width:1.6; stroke-opacity:1;">
        <line x1="17.3205080756888" y1="10" x2="0" y2="20" />
        <line x1="17.3205080756888" y1="10" x2="34.6410161513775" y2="20" />
        <line x1="17.3205080756888" y1="50" x2="0" y2="40" />
        <line x1="17.3205080756888" y1="50" x2="34.6410161513775" y2="40" />
        <line x1="17.3205080756888" y1="0" x2="17.3205080756888" y2="10" />
        <line x1="17.3205080756888" y1="50" x2="17.3205080756888" y2="60" />
        <line x1="0" y1="20" x2="0" y2="40" />
        <line x1="34.6410161513775" y1="20" x2="34.6410161513775" y2="40" />
      </g>
    </pattern>
    <pattern id="hex_67.5_0.05" width="34.6410161513775" height="60" patternTransform="rotate(67.5 0 0)" patternUnits="userSpaceOnUse">
      <rect style="fill:#ffffff; fill-opacity:1; stroke:none;" width="100%" height="100%" />
      <g style="stroke:#000000; stroke-width:1.6; stroke-opacity:1;">
        <line x1="17.3205080756888" y1="10" x2="0" y2="20" />
        <line x1="17.3205080756888" y1="10" x2="34.6410161513775" y2="20" />
        <line x1="17.3205080756888" y1="50" x2="0" y2="40" />
        <line x1="17.3205080756888" y1="50" x2="34.6410161513775" y2="40" />
        <line x1="17.3205080756888" y1="0" x2="17.3205080756888" y2="10" />
        <line x1="17.3205080756888" y1="50" x2="17.3205080756888" y2="60" />
        <line x1="0" y1="20" x2="0" y2="40" />
        <line x1="34.6410161513775" y1="20" x2="34.6410161513775" y2="40" />
      </g>
    </pattern>
    <pattern id="hex_0_0.25" width="34.6410161513775" height="60" patternTransform="rotate(0 0 0)" patternUnits="userSpaceOnUse">
      <rect style="fill:#ffffff; fill-opacity:1; stroke:none;" width="100%" height="100%" />
      <g style="stroke:#000000; stroke-width:8; stroke-opacity:1;">
        <line x1="17.3205080756888" y1="10" x2="0" y2="20" />
        <line x1="17.3205080756888" y1="10" x2="34.6410161513775" y2="20" />
        <line x1="17.3205080756888" y1="50" x2="0" y2="40" />
        <line x1="17.3205080756888" y1="50" x2="34.6410161513775" y2="40" />
        <line x1="17.3205080756888" y1="0" x2="17.3205080756888" y2="10" />
        <line x1="17.3205080756888" y1="50" x2="17.3205080756888" y2="60" />
        <line x1="0" y1="20" x2="0" y2="40" />
        <line x1="34.6410161513775" y1="20" x2="34.6410161513775" y2="40" />
      </g>
    </pattern>
    <pattern id="hex_22.5_0.25" width="34.6410161513775" height="60" patternTransform="rotate(22.5 0 0)" patternUnits="userSpaceOnUse">
      <rect style="fill:#ffffff; fill-opacity:1; stroke:none;" width="100%" height="100%" />
      <g style="stroke:#000000; stroke-width:8; stroke-opacity:1;">
        <line x1="17.3205080756888" y1="10" x2="0" y2="20" />
        <line x1="17.3205080756888" y1="10" x2="34.6410161513775" y2="20" />
        <line x1="17.3205080756888" y1="50" x2="0" y2="40" />
        <line x1="17.3205080756888" y1="50" x2="34.6410161513775" y2="40" />
        <line x1="17.3205080756888" y1="0" x2="17.3205080756888" y2="10" />
        <line x1="17.3205080756888" y1="50" x2="17.3205080756888" y2="60" />
        <line x1="0" y1="20" x2="0" y2="40" />
        <line x1="34.6410161513775" y1="20" x2="34.6410161513775" y2="40" />
      </g>
    </pattern>
    <pattern id="hex_45_0.25" width="34.6410161513775" height="60" patternTransform="rotate(45 0 0)" patternUnits="userSpaceOnUse">
      <rect style="fill:#ffffff; fill-opacity:1; stroke:none;" width="100%" height="100%" />
      <g style="stroke:#000000; stroke-width:8; stroke-opacity:1;">
        <line x1="17.3205080756888" y1="10" x2="0" y2="20" />
        <line x1="17.3205080756888" y1="10" x2="34.6410161513775" y2="20" />
        <line x1="17.3205080756888" y1="50" x2="0" y2="40" />
        <line x1="17.3205080756888" y1="50" x2="34.6410161513775" y2="40" />
        <line x1="17.3205080756888" y1="0" x2="17.3205080756888" y2="10" />
        <line x1="17.3205080756888" y1="50" x2="17.3205080756888" y2="60" />
        <line x1="0" y1="20" x2="0" y2="40" />
        <line x1="34.6410161513775" y1="20" x2="34.6410161513775" y2="40" />
      </g>
    </pattern>
    <pattern id="hex_67.5_0.25" width="34.6410161513775" height="60" patternTransform="rotate(67.5 0 0)" patternUnits="userSpaceOnUse">
      <rect style="fill:#ffffff; fill-opacity:1; stroke:none;" width="100%" height="100%" />
      <g style="stroke:#000000; stroke-width:8; stroke-opacity:1;">
        <line x1="17.3205080756888" y1="10" x2="0" y2="20" />
        <line x1="17.3205080756888" y1="10" x2="34.6410161513775" y2="20" />
        <line x1="17.3205080756888" y1="50" x2="0" y2="40" />
        <line x1="17.3205080756888" y1="50" x2="34.6410161513775" y2="40" />
        <line x1="17.3205080756888" y1="0" x2="17.3205080756888" y2="10" />
        <line x1="17.3205080756888" y1="50" x2="17.3205080756888" y2="60" />
        <line x1="0" y1="20" x2="0" y2="40" />
        <line x1="34.6410161513775" y1="20" x2="34.6410161513775" y2="40" />
      </g>
    </pattern>
    <pattern id="hex_0_0.5" width="34.6410161513775" height="60" patternTransform="rotate(0 0 0)" patternUnits="userSpaceOnUse">
      <rect style="fill:#ffffff; fill-opacity:1; stroke:none;" width="100%" height="100%" />
      <g style="stroke:#000000; stroke-width:16; stroke-opacity:1;">
        <line x1="17.3205080756888" y1="10" x2="0" y2="20" />
        <line x1="17.3205080756888" y1="10" x2="34.6410161513775" y2="20" />
        <line x1="17.3205080756888" y1="50" x2="0" y2="40" />
        <line x1="17.3205080756888" y1="50" x2="34.6410161513775" y2="40" />
        <line x1="17.3205080756888" y1="0" x2="17.3205080756888" y2="10" />
        <line x1="17.3205080756888" y1="50" x2="17.3205080756888" y2="60" />
        <line x1="0" y1="20" x2="0" y2="40" />
        <line x1="34.6410161513775" y1="20" x2="34.6410161513775" y2="40" />
      </g>
    </pattern>
    <pattern id="hex_22.5_0.5" width="34.6410161513775" height="60" patternTransform="rotate(22.5 0 0)" patternUnits="userSpaceOnUse">
      <rect style="fill:#ffffff; fill-opacity:1; stroke:none;" width="100%" height="100%" />
      <g style="stroke:#000000; stroke-width:16; stroke-opacity:1;">
        <line x1="17.3205080756888" y1="10" x2="0" y2="20" />
        <line x1="17.3205080756888" y1="10" x2="34.6410161513775" y2="20" />
        <line x1="17.3205080756888" y1="50" x2="0" y2="40" />
        <line x1="17.3205080756888" y1="50" x2="34.6410161513775" y2="40" />
        <line x1="17.3205080756888" y1="0" x2="17.3205080756888" y2="10" />
        <line x1="17.3205080756888" y1="50" x2="17.3205080756888" y2="60" />
        <line x1="0" y1="20" x2="0" y2="40" />
        <line x1="34.6410161513775" y1="20" x2="34.6410161513775" y2="40" />
      </g>
    </pattern>
    <pattern id="hex_45_0.5" width="34.6410161513775" height="60" patternTransform="rotate(45 0 0)" patternUnits="userSpaceOnUse">
      <rect style="fill:#ffffff; fill-opacity:1; stroke:none;" width="100%" height="100%" />
      <g style="stroke:#000000; stroke-width:16; stroke-opacity:1;">
        <line x1="17.3205080756888" y1="10" x2="0" y2="20" />
        <line x1="17.3205080756888" y1="10" x2="34.6410161513775" y2="20" />
        <line x1="17.3205080756888" y1="50" x2="0" y2="40" />
        <line x1="17.3205080756888" y1="50" x2="34.6410161513775" y2="40" />
        <line x1="17.3205080756888" y1="0" x2="17.3205080756888" y2="10" />
        <line x1="17.3205080756888" y1="50" x2="17.3205080756888" y2="60" />
        <line x1="0" y1="20" x2="0" y2="40" />
        <line x1="34.6410161513775" y1="20" x2="34.6410161513775" y2="40" />
      </g>
    </pattern>
    <pattern id="hex_67.5_0.5" width="34.6410161513775" height="60" patternTransform="rotate(67.5 0 0)" patternUnits="userSpaceOnUse">
      <rect style="fill:#ffffff; fill-opacity:1; stroke:none;" width="100%" height="100%" />
      <g style="stroke:#000000; stroke-width:16; stroke-opacity:1;">
        <line x1="17.3205080756888" y1="10" x2="0" y2="20" />
        <line x1="17.3205080756888" y1="10" x2="34.6410161513775" y2="20" />
        <line x1="17.3205080756888" y1="50" x2="0" y2="40" />
        <line x1="17.3205080756888" y1="50" x2="34.6410161513775" y2="40" />
        <line x1="17.3205080756888" y1="0" x2="17.3205080756888" y2="10" />
        <line x1="17.3205080756888" y1="50" x2="17.3205080756888" y2="60" />
        <line x1="0" y1="20" x2="0" y2="40" />
        <line x1="34.6410161513775" y1="20" x2="34.6410161513775" y2="40" />
      </g>
    </pattern>
    <pattern id="hex_0_0.95" width="34.6410161513775" height="60" patternTransform="rotate(0 0 0)" patternUnits="userSpaceOnUse">
      <rect style="fill:#ffffff; fill-opacity:1; stroke:none;" width="100%" height="100%" />
      <g style="stroke:#000000; stroke-width:30.4; stroke-opacity:1;">
        <line x1="17.3205080756888" y1="10" x2="0" y2="20" />
        <line x1="17.3205080756888" y1="10" x2="34.6410161513775" y2="20" />
        <line x1="17.3205080756888" y1="50" x2="0" y2="40" />
        <line x1="17.3205080756888" y1="50" x2="34.6410161513775" y2="40" />
        <line x1="17.3205080756888" y1="0" x2="17.3205080756888" y2="10" />
        <line x1="17.3205080756888" y1="50" x2="17.3205080756888" y2="60" />
        <line x1="0" y1="20" x2="0" y2="40" />
        <line x1="34.6410161513775" y1="20" x2="34.6410161513775" y2="40" />
      </g>
    </pattern>
    <pattern id="hex_22.5_0.95" width="34.6410161513775" height="60" patternTransform="rotate(22.5 0 0)" patternUnits="userSpaceOnUse">
      <rect style="fill:#ffffff; fill-opacity:1; stroke:none;" width="100%" height="100%" />
      <g style="stroke:#000000; stroke-width:30.4; stroke-opacity:1;">
        <line x1="17.3205080756888" y1="10" x2="0" y2="20" />
        <line x1="17.3205080756888" y1="10" x2="34.6410161513775" y2="20" />
        <line x1="17.3205080756888" y1="50" x2="0" y2="40" />
        <line x1="17.3205080756888" y1="50" x2="34.6410161513775" y2="40" />
        <line x1="17.3205080756888" y1="0" x2="17.3205080756888" y2="10" />
        <line x1="17.3205080756888" y1="50" x2="17.3205080756888" y2="60" />
        <line x1="0" y1="20" x2="0" y2="40" />
        <line x1="34.6410161513775" y1="20" x2="34.6410161513775" y2="40" />
      </g>
    </pattern>
    <pattern id="hex_45_0.95" width="34.6410161513775" height="60" patternTransform="rotate(45 0 0)" patternUnits="userSpaceOnUse">
      <rect style="fill:#ffffff; fill-opacity:1; stroke:none;" width="100%" height="100%" />
      <g style="stroke:#000000; stroke-width:30.4; stroke-opacity:1;">
        <line x1="17.3205080756888" y1="10" x2="0" y2="20" />
        <line x1="17.3205080756888" y1="10" x2="34.6410161513775" y2="20" />
        <line x1="17.3205080756888" y1="50" x2="0" y2="40" />
        <line x1="17.3205080756888" y1="50" x2="34.6410161513775" y2="40" />
        <line x1="17.3205080756888" y1="0" x2="17.3205080756888" y2="10" />
        <line x1="17.3205080756888" y1="50" x2="17.3205080756888" y2="60" />
        <line x1="0" y1="20" x2="0" y2="40" />
        <line x1="34.6410161513775" y1="20" x2="34.6410161513775" y2="40" />
      </g>
    </pattern>
    <pattern id="hex_67.5_0.95" width="34.6410161513775" height="60" patternTransform="rotate(67.5 0 0)" patternUnits="userSpaceOnUse">
      <rect style="fill:#ffffff; fill-opacity:1; stroke:none;" width="100%" height="100%" />
      <g style="stroke:#000000; stroke-width:30.4; stroke-opacity:1;">
        <line x1="17.3205080756888" y1="10" x2="0" y2="20" />
        <line x1="17.3205080756888" y1="10" x2="34.6410161513775" y2="20" />
        <line x1="17.3205080756888" y1="50" x2="0" y2="40" />
        <line x1="17.3205080756888" y1="50" x2="34.6410161513775" y2="40" />
        <line x1="17.3205080756888" y1="0" x2="17.3205080756888" y2="10" />
        <line x1="17.3205080756888" y1="50" x2="17.3205080756888" y2="60" />
        <line x1="0" y1="20" x2="0" y2="40" />
        <line x1="34.6410161513775" y1="20" x2="34.6410161513775" y2="40" />
      </g>
    </pattern>
  </defs>
  <rect style='fill: url(#hex_0_0.05);' x='0' y='0' height='100' width='200'></rect>
<rect style='fill: url(#hex_22.5_0.05);' x='200' y='0' height='100' width='200'></rect>
<rect style='fill: url(#hex_45_0.05);' x='400' y='0' height='100' width='200'></rect>
<rect style='fill: url(#hex_67.5_0.05);' x='600' y='0' height='100' width='200'></rect>
<rect style='fill: url(#hex_0_0.25);' x='0' y='100' height='100' width='200'></rect>
<rect style='fill: url(#hex_22.5_0.25);' x='200' y='100' height='100' width='200'></rect>
<rect style='fill: url(#hex_45_0.25);' x='400' y='100' height='100' width='200'></rect>
<rect style='fill: url(#hex_67.5_0.25);' x='600' y='100' height='100' width='200'></rect>
<rect style='fill: url(#hex_0_0.5);' x='0' y='200' height='100' width='200'></rect>
<rect style='fill: url(#hex_22.5_0.5);' x='200' y='200' height='100' width='200'></rect>
<rect style='fill: url(#hex_45_0.5);' x='400' y='200' height='100' width='200'></rect>
<rect style='fill: url(#hex_67.5_0.5);' x='600' y='200' height='100' width='200'></rect>
<rect style='fill: url(#hex_0_0.95);' x='0' y='300' height='100' width='200'></rect>
<rect style='fill: url(#hex_22.5_0.95);' x='200' y='300' height='100' width='200'></rect>
<rect style='fill: url(#hex_45_0.95);' x='400' y='300' height='100' width='200'></rect>
<rect style='fill: url(#hex_67.5_0.95);' x='600' y='300' height='100' width='200'></rect>
</svg>
